<svg aria-hidden="true" style="width:0;height:0;position:absolute;overflow:hidden" xmlns="http://www.w3.org/2000/svg"><defs><symbol id="film" viewBox="0 0 59 59"><path d="M48.724 4.917H10.276a5.36 5.36 0 0 0-5.36 5.359v38.448c0 2.96 2.4 5.36 5.36 5.36h38.448c2.96 0 5.36-2.4 5.36-5.36V10.276c0-2.96-2.4-5.36-5.36-5.36ZM17.208 4.917v49.166M41.792 4.917v49.166M4.917 29.5h49.166M4.917 17.209h12.291M4.917 41.791h12.291M41.792 41.791h12.291M41.792 17.209h12.291" stroke="#fff" stroke-width="4" stroke-linecap="round" stroke-linejoin="round"/></symbol><symbol id="icon-search" viewBox="0 0 32 32"><path d="m31.008 27.231-7.58-6.447c-.784-.705-1.622-1.029-2.299-.998a11.954 11.954 0 0 0 2.87-7.787c0-6.627-5.373-12-12-12s-12 5.373-12 12 5.373 12 12 12c2.972 0 5.691-1.081 7.787-2.87-.031.677.293 1.515.998 2.299l6.447 7.58c1.104 1.226 2.907 1.33 4.007.23s.997-2.903-.23-4.007zM12 20a8 8 0 1 1 0-16 8 8 0 0 1 0 16z"/></symbol></defs></svg>